<svg width="34" height="32" viewBox="0 0 34 32" fill="none" xmlns="http://www.w3.org/2000/svg">
<path d="M32.7164 12.6656L32.6708 12.5474L28.1477 0.748383C28.0572 0.516137 27.8944 0.319172 27.6834 0.186622C27.4725 0.0517062 27.2243 -0.0128847 26.9744 0.00213248C26.7243 0.0142693 26.4846 0.105532 26.2897 0.262756C26.0949 0.41998 25.955 0.635038 25.8903 0.876905L22.8431 10.2154H10.4885L7.42887 0.876905C7.36348 0.63649 7.22338 0.423073 7.0288 0.267466C6.83293 0.112294 6.5937 0.0217724 6.34417 0.00840475C6.09464 -0.00496289 5.84712 0.059483 5.6358 0.192841C5.42531 0.326054 5.26268 0.522805 5.17146 0.754603L0.650424 12.5474L0.60482 12.6656C-0.0461302 14.3666 -0.126391 16.2332 0.37614 17.9838C0.87867 19.7344 1.93675 21.2742 3.39082 22.371L3.40533 22.3814L3.44679 22.4125L10.3351 27.5699L13.743 30.1486L15.8159 31.7157C16.0589 31.9002 16.3556 32 16.6606 32C16.9657 32 17.2623 31.9002 17.5053 31.7157L19.5782 30.1486L22.9861 27.5699L29.9138 22.3876L29.9325 22.3752C31.3868 21.2776 32.4448 19.737 32.947 17.9856C33.4492 16.2342 33.3682 14.367 32.7164 12.6656Z" fill="#E24329"/>
<path d="M32.7164 12.6656L32.6708 12.5474C30.4675 12.9997 28.3913 13.9334 26.5909 15.2816L16.6595 22.7897L22.9861 27.5699L29.9138 22.3876L29.9324 22.3751C31.3868 21.2776 32.4448 19.737 32.947 17.9856C33.4491 16.2342 33.3682 14.367 32.7164 12.6656Z" fill="#FC6D26"/>
<path d="M10.3351 27.5699L13.743 30.1486L15.8159 31.7157C16.0589 31.9001 16.3556 32 16.6606 32C16.9657 32 17.2624 31.9001 17.5053 31.7157L19.5783 30.1486L22.9861 27.5699L16.6596 22.7897L10.3351 27.5699Z" fill="#FCA326"/>
<path d="M6.72822 15.2816C4.92875 13.9331 2.85322 12.9994 0.650424 12.5474L0.60482 12.6656C-0.0461302 14.3666 -0.126391 16.2332 0.37614 17.9838C0.87867 19.7344 1.93675 21.2742 3.39082 22.371L3.40533 22.3813L3.44679 22.4124L10.3351 27.5699L16.6596 22.7897L6.72822 15.2816Z" fill="#FC6D26"/>
</svg>
