<svg t="1736896193127" class="icon" viewBox="0 0 1024 1024" version="1.1" xmlns="http://www.w3.org/2000/svg" p-id="5623" width="200" height="200"><path d="M646.4 763.6c150.1-15.8 267.1-142.7 267.1-297 0-164.9-133.7-298.7-298.7-298.7-154.8 0-282.1 117.8-297.2 268.7" fill="#FA9F23" p-id="5624"></path><path d="M648.6 784.8l-4.5-42.4c67.7-7.1 130.3-39 176.3-89.7 46.3-51.1 71.7-117.2 71.7-186.1 0-74.1-28.8-143.7-81.2-196.1-52.4-52.4-122-81.2-196.1-81.2-69.2 0-135.5 25.6-186.6 72.2-50.8 46.3-82.5 109.2-89.3 177.3l-42.5-4.2c7.8-78.6 44.4-151.2 103-204.6 59-53.7 135.5-83.3 215.4-83.3 85.5 0 165.8 33.3 226.3 93.7 60.4 60.4 93.7 140.8 93.7 226.3 0 79.6-29.4 155.9-82.8 214.8-53 58.3-125.2 95.1-203.4 103.3z" fill="#333333" p-id="5625"></path><path d="M161.5 832.4c116.6 116.6 305.7 116.6 422.4 0s116.6-305.7 0-422.4" fill="#FA9F23" p-id="5626"></path><path d="M372.7 941.2c-85.5 0-165.8-33.3-226.3-93.7l30.2-30.2c52.4 52.4 122 81.2 196.1 81.2s143.7-28.8 196.1-81.2c52.4-52.4 81.2-122 81.2-196.1s-28.8-143.7-81.2-196.1l30.2-30.2c60.4 60.4 93.7 140.8 93.7 226.3S659.4 787 599 847.5c-60.5 60.4-140.8 93.7-226.3 93.7z" fill="#333333" p-id="5627"></path><path d="M161.480941 832.416461a170.7 298.7 44.999 1 0 422.418218-422.432964 170.7 298.7 44.999 1 0-422.418218 422.432964Z" fill="#FBE0C3" p-id="5628"></path><path d="M249.1 885.8c-9.3 0-18.4-0.7-27.2-2-30.5-4.6-55.9-16.8-75.5-36.4-19.6-19.6-31.8-45-36.4-75.5-4.2-28-1.7-59 7.4-92.4 18.1-66.2 60.5-135.2 119.5-194.2S364.9 384 431.1 366c33.3-9.1 64.4-11.6 92.4-7.4 30.5 4.6 55.9 16.8 75.5 36.4s31.8 45 36.4 75.5c4.2 28 1.7 59-7.4 92.4C609.9 629 567.5 698 508.5 757s-128 101.4-194.2 119.5c-22.9 6.2-44.7 9.3-65.2 9.3z m18-370.2c-53.8 53.8-92.4 116.1-108.5 175.2-15 55-8.6 99.9 18 126.5s71.5 33 126.5 18c59.2-16.1 121.4-54.7 175.2-108.5 53.8-53.8 92.4-116.1 108.5-175.2 15-55 8.6-99.9-18-126.5s-71.5-33-126.5-18c-59.1 16.2-121.4 54.7-175.2 108.5z" fill="#333333" p-id="5629"></path><path d="M373.3 641.5h148.4c-16.2 23.8-35.8 47.6-58.5 70.2-28.9 28.9-59.7 52.9-90 71.1l0.1-141.3z m187.1-193.4c27 37.3 15.7 103.4-25.2 172.1H388.3l172.1-172.1zM351.9 656.6v138.2c-61.4 31.7-118.7 38.6-152.4 14.2l152.4-152.4z m-152.5-15.1h137.4L184.6 793.8c-24-33.9-16.9-91.1 14.8-152.3z m173.9-182.6c68.5-40.9 134.5-52.4 172-25.9l-172 172V458.9z m-91.1 71.8c22.5-22.5 46.1-42 69.7-58.1v147.6H211.4c17.6-29.1 40.4-58.6 67.8-86.5l3-3z" fill="#F5A74A" p-id="5630"></path><path d="M625.8 266.5l-13.5 9.9c-1.9 1.4-4.6 1-6-0.9-0.6-0.9-0.9-1.9-0.8-3l1.8-16.7L592 249c-2.2-1-3.1-3.5-2.2-5.6 0.4-1 1.2-1.8 2.2-2.2l15.3-6.8-1.8-16.7c-0.3-2.3 1.4-4.4 3.8-4.7 1.1-0.1 2.1 0.2 3 0.8l13.5 9.9 13.5-9.9c1.9-1.4 4.6-1 6 0.9 0.6 0.9 0.9 1.9 0.8 3l-1.8 16.7 15.3 6.8c2.2 1 3.1 3.5 2.2 5.6-0.4 1-1.2 1.8-2.2 2.2l-15.3 6.8 1.8 16.7c0.3 2.3-1.4 4.4-3.8 4.7-1.1 0.1-2.1-0.2-3-0.8l-13.5-9.9z" fill="#333333" p-id="5631"></path><path d="M799.4 313.5m-12.8 0a12.8 12.8 0 1 0 25.6 0 12.8 12.8 0 1 0-25.6 0Z" fill="#333333" p-id="5632"></path><path d="M828.4 348.3m-12.8 0a12.8 12.8 0 1 0 25.6 0 12.8 12.8 0 1 0-25.6 0Z" fill="#333333" p-id="5633"></path></svg>